<svg xmlns="http://www.w3.org/2000/svg" xmlns:xlink="http://www.w3.org/1999/xlink" width="175" height="56.379" viewBox="0 0 175 56.379"><defs><style>.a{fill:none;}.b{clip-path:url(#a);}.c{fill:#37474f;}.d{fill:#2979ff;}.e{fill:#ff9100;}</style><clipPath id="a"><rect class="a" width="175" height="56.379"/></clipPath></defs><g class="b"><path class="c" d="M385.4,89.9a10.139,10.139,0,0,0-3.581,3.59,9.894,9.894,0,0,0,0,9.935A10.161,10.161,0,0,0,385.4,107a9.527,9.527,0,0,0,4.972,1.337h12.4v2.477h-12.4a11.851,11.851,0,0,1-6.21-1.678,12.838,12.838,0,0,1-4.478-4.478,12.315,12.315,0,0,1,0-12.412,12.816,12.816,0,0,1,4.478-4.487,11.851,11.851,0,0,1,6.21-1.678h12.4v2.477h-12.4A9.527,9.527,0,0,0,385.4,89.9" transform="translate(-308.524 -70.262)"/><path class="c" d="M556.152,86.084v2.477H533.895v8.687H544.7v2.477H531.418V86.084Zm-22.257,22.257h22.257v2.477H531.418v-7.557h2.477Z" transform="translate(-433.743 -70.262)"/><path class="c" d="M663.83,89.961a10.086,10.086,0,0,0-3.518,3.563,9.887,9.887,0,0,0,.018,9.9A10.164,10.164,0,0,0,663.911,107a9.529,9.529,0,0,0,4.972,1.337h2.674A9.5,9.5,0,0,0,676.511,107a10.237,10.237,0,0,0,3.59-3.581,9.857,9.857,0,0,0,.027-9.9,10.084,10.084,0,0,0-3.518-3.563,9.862,9.862,0,0,0-4.927-1.4V86.084a12.177,12.177,0,0,1,6.166,1.741,12.689,12.689,0,0,1,4.406,4.46,12.361,12.361,0,0,1-.018,12.376,12.739,12.739,0,0,1-4.478,4.478,11.865,11.865,0,0,1-6.2,1.678h-2.674a11.865,11.865,0,0,1-6.2-1.678,12.813,12.813,0,0,1-4.487-4.478,12.333,12.333,0,0,1-.027-12.376,12.663,12.663,0,0,1,4.416-4.46,12.193,12.193,0,0,1,6.156-1.741v2.477a9.831,9.831,0,0,0-4.909,1.4" transform="translate(-535.848 -70.262)"/><path class="c" d="M817.551,108.341h17.931a4.326,4.326,0,0,0,0-8.651H824.354a6.512,6.512,0,0,1-3.41-.925,7.064,7.064,0,0,1-2.468-2.468,6.754,6.754,0,0,1,0-6.821,7.064,7.064,0,0,1,2.468-2.468,6.512,6.512,0,0,1,3.41-.924h17.931v2.477H824.354a4.326,4.326,0,1,0,0,8.651h11.129a6.513,6.513,0,0,1,3.41.924,7.066,7.066,0,0,1,2.468,2.468,6.753,6.753,0,0,1,0,6.821,7.064,7.064,0,0,1-2.468,2.468,6.512,6.512,0,0,1-3.41.924H817.551Z" transform="translate(-667.285 -70.262)"/><path class="d" d="M34.648,8.88c-2.7-1.4-6.328-3.481-9.663-5.317L5.34,14.992,25.012,26.417c3.67-2.172,7.266-4.3,10.86-6.427q5.113-3.028,10.225-6.058a6.744,6.744,0,0,1,1.319-.668,1.715,1.715,0,0,1,2.343,1.388,9.258,9.258,0,0,1,.072,1.646c.013,7.982-.011,15.963.056,23.944a3.44,3.44,0,0,1-2.064,3.251q-9.143,5.293-18.254,10.64c-.951.555-1.927,1.069-2.848,1.67a3.048,3.048,0,0,1-3.54.016c-5.164-3.049-10.359-6.046-15.544-9.061-1.9-1.106-3.783-2.255-5.72-3.3A3.182,3.182,0,0,1,.025,40.3c.061-2.8-.03-5.613-.025-8.42,0-.578,0,.247,0-1.622,2.2-.026,3.506.869,3.523,2.784.022,2.416.005,4.831.005,7.285L24.971,52.76,46.251,40.4V17.935c-1.749,1.007-3.313,1.88-4.851,2.8-4.819,2.876-9.646,5.739-14.428,8.675a3.314,3.314,0,0,1-3.825.061c-6.9-4.107-13.838-8.16-20.76-12.234-.189-.112-.369-.241-.551-.364-1.855-1.26-1.9-2.653.027-3.82,4.144-2.5,8.349-4.905,12.532-7.342,2.948-1.717,5.917-3.4,8.845-5.145A3.038,3.038,0,0,1,26.51.406Q31.554,3.221,36.585,6.06c.331.187,2.075,1.18,2.306,1.326-.5,1.474-3.041,2.119-4.243,1.494" transform="translate(0 0)"/><path class="e" d="M75.837,170.812l-.077-4.18,9.363,5.178.077,4.18Z" transform="translate(-61.835 -136.005)"/><path class="e" d="M90.846,218.743l-.077-4.18,6.471,3.709.077,4.18Z" transform="translate(-74.086 -175.126)"/></g></svg>